<?xml version="1.0" standalone="no"?>
<!DOCTYPE svg PUBLIC "-//W3C//DTD SVG 20010904//EN"
 "http://www.w3.org/TR/2001/REC-SVG-20010904/DTD/svg10.dtd">
<svg version="1.0" xmlns="http://www.w3.org/2000/svg"
 width="2400.000000pt" height="1600.000000pt" viewBox="0 0 2400.000000 1600.000000"
 preserveAspectRatio="xMidYMid meet">

<g transform="translate(0.000000,1600.000000) scale(0.100000,-0.100000)"
fill="#000000" stroke="none">
<path d="M0 8000 l0 -8000 690 0 690 0 -7 27 c-5 16 -8 53 -7 84 0 78 35 141
104 197 30 23 82 65 114 92 44 37 80 56 143 77 81 26 88 31 181 123 110 109
170 156 212 165 16 3 35 13 42 22 14 18 125 73 146 73 8 0 27 10 44 21 16 12
48 27 71 35 107 34 146 53 196 96 18 16 45 35 60 41 36 15 128 87 171 132 19
20 55 51 80 68 25 17 68 49 95 72 61 50 158 116 205 140 19 10 82 63 140 119
58 55 123 110 145 121 76 39 146 87 209 143 34 31 88 70 119 86 31 15 85 54
119 86 35 31 79 65 98 75 19 10 53 32 75 49 69 54 161 115 191 126 16 6 49 24
74 40 25 16 68 35 95 42 28 7 65 23 84 36 19 12 46 25 60 29 26 6 124 73 136
94 10 15 137 95 180 113 20 9 53 30 75 48 21 18 73 51 116 74 68 35 134 76
244 151 14 9 57 47 95 84 84 80 182 143 250 160 118 30 360 170 503 292 30 26
74 52 96 59 23 6 61 25 85 41 24 16 89 43 144 59 74 21 110 38 140 64 23 19
63 41 89 49 26 7 63 25 80 38 46 34 158 93 190 101 14 3 73 28 130 55 58 27
122 53 144 57 21 4 64 18 94 31 30 13 79 28 110 33 52 8 85 16 300 71 47 12
110 32 140 45 30 12 73 26 95 30 22 3 51 12 65 19 35 18 206 75 223 75 8 0 39
11 69 25 30 14 77 28 104 31 27 4 88 19 136 35 51 17 108 29 138 29 31 0 88
12 142 30 76 25 105 30 191 30 63 0 117 6 142 15 28 10 86 14 192 15 86 0 164
5 180 11 15 6 64 15 108 19 44 5 103 13 130 19 28 6 97 18 155 27 58 9 119 21
135 26 17 5 64 13 105 18 41 4 93 13 115 18 170 43 135 42 1141 42 658 0 970
-3 994 -11 19 -6 82 -14 140 -19 79 -6 119 -14 163 -34 32 -14 65 -26 75 -26
20 0 151 -39 272 -82 47 -16 103 -34 125 -40 22 -6 72 -20 110 -30 39 -11 99
-28 135 -37 36 -10 77 -24 90 -32 16 -9 74 -16 155 -21 77 -4 164 -15 215 -28
47 -12 139 -25 205 -29 119 -9 206 -20 340 -47 39 -7 107 -15 152 -17 65 -3
93 -9 133 -30 33 -17 68 -27 96 -27 24 0 65 -7 91 -16 81 -28 115 -35 211 -44
70 -6 106 -14 144 -34 l50 -26 332 0 333 0 13 43 c8 23 21 58 31 77 17 37 59
191 59 221 0 9 6 39 14 65 8 27 19 78 25 112 5 35 19 83 30 105 11 23 27 76
36 117 20 88 49 192 77 275 11 33 24 92 28 130 5 39 13 83 19 98 6 16 11 61
11 100 0 40 7 99 15 132 8 33 14 85 15 115 0 68 25 235 40 275 7 17 16 137 20
270 9 231 28 427 49 490 5 17 17 107 26 200 8 94 20 188 26 210 8 26 14 244
18 615 5 417 10 583 19 603 7 17 12 75 12 146 0 72 6 139 15 174 22 83 22 762
0 822 -8 23 -14 79 -15 135 0 52 -7 122 -15 155 -12 51 -15 234 -15 1160 0
746 4 1113 11 1140 6 22 14 94 19 160 5 86 14 137 31 180 20 54 23 81 26 252
3 153 1 204 -12 245 -8 28 -15 80 -15 114 0 46 -7 77 -27 120 -23 50 -28 78
-34 189 -4 72 -12 146 -18 165 -7 22 -11 151 -11 360 0 259 -3 335 -15 374
-13 42 -15 169 -15 851 0 889 -2 864 66 943 l36 42 -8351 0 -8351 0 0 -8000z"/>
<path d="M18568 15970 c55 -39 90 -94 104 -161 9 -46 8 -72 -11 -174 -13 -66
-27 -142 -31 -170 -12 -71 -12 -1684 0 -1770 6 -38 17 -110 26 -160 8 -49 19
-146 24 -215 5 -69 14 -143 20 -165 14 -53 7 -1694 -8 -1815 -14 -115 -14
-2212 0 -2295 6 -35 13 -381 17 -830 7 -838 4 -788 66 -980 13 -38 26 -101 29
-140 4 -38 17 -115 31 -170 14 -55 25 -120 25 -145 0 -25 7 -67 15 -94 9 -30
15 -92 15 -160 1 -61 7 -138 15 -171 8 -33 15 -91 15 -130 0 -38 7 -88 15
-110 11 -30 14 -96 15 -270 0 -174 4 -240 15 -270 8 -22 14 -74 15 -115 0 -56
8 -100 30 -168 17 -51 30 -109 30 -128 0 -19 7 -45 14 -57 20 -30 46 -133 46
-182 0 -47 24 -154 52 -239 27 -78 68 -245 68 -274 0 -13 5 -33 12 -45 6 -12
14 -72 18 -133 5 -103 9 -117 42 -181 20 -38 41 -94 46 -124 6 -32 33 -95 65
-154 31 -55 61 -120 67 -145 7 -25 27 -65 45 -90 18 -25 40 -61 48 -81 8 -20
30 -47 48 -59 19 -13 93 -80 164 -149 164 -159 269 -240 346 -268 67 -25 183
-87 276 -147 34 -23 82 -54 107 -69 25 -15 78 -59 118 -96 67 -63 138 -111
163 -111 14 0 169 -103 218 -145 23 -20 75 -65 116 -101 41 -36 88 -76 105
-89 49 -37 164 -94 246 -121 68 -23 101 -37 255 -109 28 -12 64 -27 80 -33 38
-12 145 -80 145 -92 0 -22 55 -68 122 -102 40 -20 106 -53 145 -73 40 -20 88
-50 105 -66 18 -17 47 -38 63 -46 17 -9 48 -32 70 -51 37 -32 64 -43 185 -75
25 -7 64 -27 85 -45 26 -21 75 -45 136 -65 53 -18 110 -44 127 -59 18 -15 57
-34 87 -43 45 -13 60 -23 76 -50 11 -18 46 -50 77 -71 31 -21 76 -56 99 -76
24 -21 52 -38 63 -38 47 0 117 -45 198 -126 55 -55 90 -84 105 -84 37 0 64
-27 96 -95 21 -44 40 -69 60 -79 16 -9 40 -35 54 -59 14 -24 42 -56 62 -71
l35 -27 0 7765 0 7766 -2737 0 -2736 0 41 -30z"/>
</g>
</svg>
