<?xml version="1.0" standalone="no"?>
<!DOCTYPE svg PUBLIC "-//W3C//DTD SVG 20010904//EN"
 "http://www.w3.org/TR/2001/REC-SVG-20010904/DTD/svg10.dtd">
<svg version="1.0" xmlns="http://www.w3.org/2000/svg"
 width="2400.000000pt" height="1600.000000pt" viewBox="0 0 2400.000000 1600.000000"
 preserveAspectRatio="xMidYMid meet">

<g transform="translate(0.000000,1600.000000) scale(0.100000,-0.100000)"
fill="#000000" stroke="none">
<path d="M0 8000 l0 -8000 738 0 738 0 59 61 c71 72 184 146 280 184 50 20 91
46 145 95 41 37 136 107 210 156 74 48 167 112 206 141 40 28 121 80 180 113
182 103 265 154 354 218 47 34 111 76 143 94 32 18 98 61 147 96 49 34 118 78
152 96 76 40 315 195 381 248 27 21 83 54 125 74 42 20 95 51 117 69 22 17 65
45 95 62 141 77 209 119 250 158 25 24 83 69 130 101 47 31 146 99 220 149 74
51 169 108 210 128 41 20 104 56 139 79 35 24 113 76 175 117 61 41 134 94
161 118 28 24 84 61 125 83 41 22 104 58 138 80 35 21 98 53 140 70 43 18 120
56 172 85 52 29 122 66 155 82 33 17 83 46 112 65 28 20 85 48 125 63 82 30
341 150 433 200 33 18 94 43 135 55 41 12 111 40 156 61 44 21 139 55 210 74
183 51 501 154 554 181 25 12 155 59 289 104 135 45 257 88 272 96 46 23 419
161 502 185 86 25 83 22 115 124 12 39 17 128 22 400 9 397 23 626 45 701 23
78 20 232 -6 335 -20 78 -21 100 -16 309 4 124 12 241 18 260 6 20 14 160 18
330 6 283 6 297 -14 335 -15 31 -21 65 -24 149 -3 113 3 147 41 232 22 48 22
57 19 404 -2 317 -1 360 15 400 15 41 17 102 18 655 1 494 4 620 15 663 12 42
12 62 3 103 -18 78 -15 642 3 694 12 33 15 124 15 495 0 323 3 465 12 490 8
24 12 147 13 390 1 245 5 366 13 390 8 23 12 119 12 285 0 141 5 267 11 290 6
22 14 123 19 225 4 102 15 226 25 275 9 50 21 117 27 150 6 33 14 191 18 350
6 279 7 292 30 340 24 49 25 57 28 343 l3 292 -32 68 c-28 57 -33 83 -39 172
-4 58 -11 112 -14 121 -4 9 -11 90 -15 180 -9 186 -24 251 -93 394 l-43 90 0
140 c0 140 0 141 34 206 31 62 32 67 19 95 -9 16 -18 41 -22 57 l-6 27 -4580
0 -4580 0 0 -8000z"/>
<path d="M10066 15965 c-4 -20 -25 -72 -47 -117 -23 -48 -39 -97 -39 -118 0
-19 -5 -51 -11 -70 -13 -41 -28 -337 -35 -702 l-5 -258 31 -38 c17 -22 38 -61
46 -87 19 -65 19 -329 0 -427 -48 -243 -48 -239 -43 -728 4 -440 14 -648 36
-750 14 -63 13 -565 0 -615 -7 -23 -15 -214 -20 -455 -4 -228 -12 -462 -18
-520 -5 -58 -9 -197 -10 -310 -1 -120 -6 -221 -13 -245 -7 -26 -14 -213 -18
-540 -7 -471 -16 -646 -39 -723 -6 -19 -13 -276 -17 -587 -7 -528 -6 -556 12
-612 16 -48 19 -87 18 -223 0 -205 -23 -326 -70 -381 -11 -12 -11 -24 -3 -54
6 -22 15 -216 19 -444 5 -223 14 -440 20 -481 17 -111 8 -1499 -10 -1558 -11
-37 -10 -50 4 -94 9 -28 16 -80 16 -116 0 -37 6 -100 14 -142 32 -164 37 -209
35 -295 -2 -90 -2 -90 22 -87 13 2 164 6 334 8 275 5 330 3 485 -16 96 -12
265 -26 375 -31 235 -11 344 -32 476 -88 55 -23 132 -46 184 -55 50 -9 171
-42 270 -75 99 -32 239 -71 310 -85 72 -15 175 -42 230 -60 65 -22 128 -36
180 -39 57 -4 116 -18 205 -48 l125 -42 515 -4 c284 -3 637 0 785 6 247 10
284 13 435 45 91 19 206 46 256 60 120 32 285 66 323 66 22 0 46 14 89 53 120
106 317 197 460 213 42 5 72 16 115 45 32 21 66 40 75 44 18 5 28 25 111 210
85 191 196 579 225 785 18 126 36 210 72 341 19 68 22 100 17 151 -3 36 0 101
6 145 12 79 13 115 26 513 4 118 14 255 23 305 13 77 15 210 16 915 1 694 3
831 16 860 12 29 14 160 16 800 1 686 12 1084 30 1162 3 15 -4 92 -15 171 -18
118 -21 173 -17 308 2 90 9 425 15 744 9 519 8 592 -6 698 -15 104 -15 131 -3
220 19 149 14 2273 -6 2397 -17 106 -18 398 -2 580 11 125 13 179 8 270 -1 19
-1 67 0 105 1 39 2 85 1 103 l-1 32 -3314 0 -3314 0 -6 -35z"/>
<path d="M18609 15843 c-1 -87 -1 -232 0 -323 2 -220 2 -296 -4 -625 -3 -224
-1 -300 12 -380 13 -81 14 -136 8 -290 -12 -274 -8 -744 9 -1295 4 -122 2
-221 -4 -265 -8 -50 -8 -189 0 -495 19 -694 25 -799 53 -975 27 -164 34 -299
17 -370 -17 -73 -10 -1020 10 -1305 18 -258 19 -326 28 -1150 8 -689 11 -801
25 -842 14 -41 16 -115 16 -571 0 -338 4 -533 11 -551 6 -16 10 -121 10 -249
1 -174 4 -227 15 -247 9 -16 14 -56 15 -114 0 -85 22 -240 75 -531 13 -71 26
-173 29 -227 6 -111 29 -219 61 -292 39 -87 68 -207 70 -287 2 -84 31 -172
111 -335 30 -62 44 -103 44 -131 0 -27 13 -67 39 -120 22 -44 49 -110 62 -149
38 -117 96 -225 167 -310 37 -45 104 -128 149 -185 46 -57 101 -122 124 -144
69 -67 121 -133 238 -302 84 -121 124 -171 159 -195 26 -18 72 -55 102 -83 65
-60 205 -146 287 -177 32 -11 119 -62 194 -112 147 -99 242 -151 479 -264 132
-63 184 -88 290 -143 8 -4 71 -35 140 -68 69 -33 181 -90 250 -126 224 -119
472 -223 715 -302 430 -140 574 -191 722 -256 94 -41 211 -85 260 -97 48 -12
124 -37 168 -55 45 -18 106 -38 135 -44 30 -6 65 -13 78 -17 l22 -6 0 7581 0
7581 -2695 0 -2695 0 -1 -157z"/>
</g>
</svg>
