<?xml version="1.0" standalone="no"?>
<!DOCTYPE svg PUBLIC "-//W3C//DTD SVG 20010904//EN"
 "http://www.w3.org/TR/2001/REC-SVG-20010904/DTD/svg10.dtd">
<svg version="1.0" xmlns="http://www.w3.org/2000/svg"
 width="2400.000000pt" height="1600.000000pt" viewBox="0 0 2400.000000 1600.000000"
 preserveAspectRatio="xMidYMid meet">

<g transform="translate(0.000000,1600.000000) scale(0.100000,-0.100000)"
fill="#000000" stroke="none">
<path d="M0 8000 l0 -8000 694 0 694 0 -10 37 c-26 96 16 205 103 271 27 20
72 56 99 79 58 49 84 63 160 88 63 21 81 34 207 156 54 52 113 99 140 112 27
12 64 34 84 50 20 15 62 36 95 47 32 11 82 31 109 45 28 13 83 36 124 51 40
15 87 39 105 54 17 14 65 48 106 75 41 27 107 79 145 115 39 36 92 81 118 100
27 19 81 59 120 87 40 29 97 67 127 85 30 17 100 75 156 129 59 57 123 108
154 124 62 32 143 89 215 153 27 24 74 57 105 72 30 16 86 56 123 89 37 34 80
67 96 75 15 8 77 50 138 94 61 44 124 82 139 86 15 4 40 16 56 27 15 11 53 29
83 39 99 34 223 101 280 151 30 27 88 67 128 90 39 23 104 63 143 89 38 27 99
63 135 81 96 48 245 153 324 228 85 81 179 140 252 157 30 7 84 31 121 53 37
22 89 49 115 60 50 22 189 117 265 183 24 20 65 45 90 55 26 10 70 31 98 48
29 17 90 42 138 54 60 16 98 33 128 57 24 19 68 43 97 55 30 11 76 36 103 55
26 20 96 55 155 79 59 23 137 57 173 74 36 17 81 34 100 37 19 3 53 14 75 24
22 10 60 23 85 29 40 9 167 41 350 87 36 10 92 27 126 40 33 12 78 26 100 30
21 3 52 13 68 21 33 17 203 73 221 73 7 0 37 11 66 24 30 14 83 30 119 35 36
6 98 22 138 36 39 14 93 25 118 25 26 0 64 5 86 12 37 11 43 18 89 110 38 75
49 108 49 145 0 26 6 72 14 102 8 31 21 84 30 118 14 56 16 262 16 1975 0
1655 2 1920 15 1968 12 43 15 127 15 390 0 263 3 347 15 390 12 46 15 174 15
785 1 440 5 750 11 780 6 28 13 118 17 200 4 83 12 157 17 165 6 8 13 98 16
200 3 102 11 213 17 248 7 34 17 90 23 124 6 34 19 79 30 100 18 36 19 71 19
1045 0 857 -2 1016 -15 1063 -12 45 -15 144 -15 539 l0 484 -27 66 c-23 56
-28 84 -31 186 -6 157 19 263 75 327 12 13 14 29 9 63 l-7 45 -4640 0 -4639 0
0 -8000z"/>
<path d="M10030 15488 c0 -421 -3 -523 -15 -568 -11 -40 -15 -110 -15 -255 0
-145 4 -215 15 -255 13 -47 15 -220 15 -1185 l-1 -1130 -25 -70 c-49 -137 -56
-183 -63 -405 -5 -118 -13 -231 -19 -250 -7 -19 -12 -76 -12 -126 0 -52 -6
-112 -15 -140 -13 -43 -15 -296 -15 -1954 0 -1648 -2 -1912 -15 -1960 -13 -47
-15 -194 -15 -964 l0 -909 27 -66 c20 -51 28 -92 34 -181 4 -65 16 -147 29
-190 15 -52 23 -117 27 -212 5 -113 8 -138 21 -138 24 0 144 21 187 32 22 6
72 14 110 18 39 5 113 19 165 32 l95 23 983 3 c852 2 991 0 1041 -13 33 -8 89
-15 126 -15 51 0 84 -7 142 -30 41 -16 81 -30 89 -30 22 0 252 -69 304 -91 25
-10 84 -28 131 -38 48 -11 104 -27 125 -35 22 -8 64 -20 94 -26 30 -6 66 -18
80 -28 18 -12 59 -18 155 -24 75 -4 166 -16 215 -28 47 -12 139 -25 205 -29
116 -8 184 -18 330 -47 39 -7 108 -15 155 -17 68 -3 96 -9 137 -30 33 -17 68
-27 96 -27 24 0 81 -12 128 -26 46 -14 125 -29 175 -34 66 -6 104 -15 142 -34
l51 -26 324 0 c251 0 327 3 335 13 29 35 88 225 127 412 19 92 46 192 68 251
9 22 23 78 33 125 9 46 34 137 55 201 22 65 39 135 39 156 0 21 7 61 15 88 8
27 15 83 15 124 0 41 5 91 10 110 6 19 13 78 16 130 3 52 16 150 30 218 18 91
26 182 34 355 9 213 25 358 50 462 5 22 10 63 10 91 0 27 7 102 16 165 36 260
41 368 43 829 1 373 4 476 16 520 9 33 15 101 15 170 0 69 6 137 15 170 21 79
21 731 0 811 -8 30 -15 91 -15 136 0 45 -7 108 -15 140 -22 85 -22 2270 0
2353 8 30 15 94 15 141 0 81 20 179 41 206 6 6 13 96 16 200 5 157 3 197 -11
242 -9 30 -16 83 -16 118 0 46 -7 77 -26 120 -22 48 -28 80 -34 183 -5 69 -13
141 -19 160 -7 22 -11 151 -11 358 0 258 -3 336 -15 383 -13 51 -15 171 -13
886 l3 828 27 47 c16 25 40 56 54 67 l27 21 -3347 0 -3346 0 0 -512z"/>
<path d="M18556 15968 c107 -73 134 -176 93 -353 l-24 -100 -3 -918 c-2 -793
0 -926 13 -977 8 -32 15 -77 15 -101 0 -24 7 -66 15 -93 9 -28 15 -88 15 -141
0 -51 6 -113 15 -141 12 -42 14 -171 11 -879 -3 -570 -7 -841 -15 -865 -15
-46 -16 -2359 -1 -2410 6 -21 12 -335 16 -790 3 -429 10 -768 15 -786 5 -17
14 -57 19 -89 5 -32 18 -74 28 -94 11 -21 22 -69 25 -114 4 -43 18 -122 32
-177 14 -54 25 -120 25 -147 0 -26 7 -70 15 -97 9 -30 15 -91 15 -155 1 -58 7
-133 15 -166 8 -33 15 -94 15 -135 0 -41 7 -97 15 -124 11 -37 15 -103 15
-266 0 -163 4 -229 15 -266 8 -27 15 -81 15 -120 0 -51 8 -97 30 -164 17 -51
30 -106 30 -122 0 -16 7 -45 16 -66 26 -60 44 -134 44 -183 0 -55 38 -211 80
-328 16 -46 32 -107 36 -135 3 -28 12 -71 20 -96 7 -25 15 -88 16 -140 3 -87
6 -102 41 -172 20 -43 42 -99 47 -125 5 -27 39 -106 75 -176 36 -70 65 -136
65 -146 0 -10 13 -36 29 -59 17 -22 42 -63 57 -91 14 -28 40 -61 58 -73 17
-12 87 -76 156 -142 165 -160 268 -239 354 -272 77 -30 213 -103 266 -144 19
-15 58 -38 85 -51 28 -13 89 -61 136 -106 52 -51 105 -91 135 -104 72 -32 177
-96 226 -138 24 -20 62 -49 85 -64 23 -15 53 -41 65 -58 50 -68 221 -173 348
-214 52 -16 168 -64 255 -104 179 -84 192 -92 243 -160 16 -20 69 -52 170
-102 85 -41 165 -88 189 -110 24 -22 47 -39 52 -39 5 0 38 -23 72 -50 38 -30
72 -50 88 -50 14 0 35 -7 45 -15 11 -8 36 -15 55 -15 28 0 46 -9 81 -40 25
-22 56 -43 70 -46 14 -3 39 -12 57 -20 17 -8 37 -14 45 -14 18 0 83 -33 127
-65 19 -14 44 -25 57 -25 14 0 47 -25 93 -70 38 -38 75 -70 81 -70 6 0 32 -20
58 -44 26 -25 61 -47 77 -51 68 -15 114 -44 195 -123 46 -45 96 -85 110 -88
44 -9 54 -19 91 -89 25 -49 44 -73 66 -83 18 -8 34 -24 37 -36 3 -12 30 -46
61 -76 l55 -54 0 7772 0 7772 -2746 0 -2746 0 48 -32z"/>
</g>
</svg>
